<svg xmlns="http://www.w3.org/2000/svg" width="930.187" height="151.549"><g fill="#0F5C47"><path d="M16.653 122.044a16.466 16.466 0 0 1-8.288-30.7l102.553-59.612a16.464 16.464 0 1 1 16.546 28.47l-102.553 59.6a16.388 16.388 0 0 1-8.258 2.242zM68.101 151.549a16.466 16.466 0 0 1-8.289-30.7l51.277-29.8a16.464 16.464 0 1 1 16.546 28.47l-51.277 29.8a16.383 16.383 0 0 1-8.257 2.23zM16.482 62.732a16.467 16.467 0 0 1-8.289-30.7l51.278-29.8a16.465 16.465 0 0 1 16.548 28.47l-51.276 29.8a16.394 16.394 0 0 1-8.261 2.23z"/><g transform="translate(-135.829 -151.568)"><path d="M1027.208 228.46c0-25.471-16.6-44.166-40.01-44.166-24.6 0-42.945 18.148-42.945 42.279v.3c0 25.872 18.768 43.7 44.157 43.7 15.3 0 26.645-5.989 34.538-15.781l-14.889-13.19c-5.116 6.465-11.3 9.729-19.348 9.729-10.708 0-18.283-5.675-20.657-16.553h58.824c.172-2.215.33-4.418.33-6.318zm-59.469-8.678c1.531-9.7 8.364-16.809 18.3-16.809 10.091 0 16.367 6.842 17.824 16.809z"/><rect width="25.287" height="117.178" transform="translate(1040.728 151.616)"/><path d="M454.588 193.378q8.344 8.965 8.351 24.418v50.946h-25.3v-46.9q0-7.376-3.244-11.422c-2.161-2.688-5.42-4.031-9.752-4.031a14.757 14.757 0 0 0-11.764 5.09q-4.395 5.1-4.4 12.994v44.272h-24.423v-46.9q0-7.376-3.243-11.422c-2.159-2.688-5.419-4.031-9.75-4.031a14.84 14.84 0 0 0-11.679 5.09q-4.48 5.1-4.489 12.994v44.272h-25.273V186.36h25.1l.007 9.135a31.434 31.434 0 0 1 9.834-7.9 29.536 29.536 0 0 1 14.067-3.162 33.586 33.586 0 0 1 8.775 1.044 28.164 28.164 0 0 1 11.866 6.421 27.737 27.737 0 0 1 3.6 3.945 34.782 34.782 0 0 1 12.381-8.421 39.465 39.465 0 0 1 15.18-2.989q15.824-.005 24.156 8.945zM846.224 185.23a21.293 21.293 0 0 1 4.648 1.23l-4.035 22.314a29.919 29.919 0 0 0-9.133-1.244q-8.943 0-14.481 5.361t-5.546 15.195v40.754H792.39v-82.59h25.11v10.575a37.66 37.66 0 0 1 8.694-8.077q5.534-3.859 14.323-3.874a40.741 40.741 0 0 1 5.707.356zM884.471 219.172a25.531 25.531 0 0 0-1.289 8.172 24.4 24.4 0 0 0 1.289 7.83 21.437 21.437 0 0 0 3.784 6.9 19.967 19.967 0 0 0 6.026 4.9 16.679 16.679 0 0 0 8.016 1.89 21.06 21.06 0 0 0 10.679-2.492 28.138 28.138 0 0 0 6.891-5.422l14.463 16.183a42.683 42.683 0 0 1-13.172 9.473 44.174 44.174 0 0 1-19.394 3.966 47.538 47.538 0 0 1-17.8-3.2 39.039 39.039 0 0 1-13.705-8.954 40.793 40.793 0 0 1-8.857-13.691 46.031 46.031 0 0 1-3.2-17.388 43.235 43.235 0 0 1 12.306-30.481 41.771 41.771 0 0 1 13.785-9.205 44.57 44.57 0 0 1 17.462-3.364 46.548 46.548 0 0 1 19.114 3.616 40.647 40.647 0 0 1 13.621 9.64l-14.995 16.2a28.883 28.883 0 0 0-6.7-5.522c-2.662-1.6-6.168-2.41-10.51-2.41a17.3 17.3 0 0 0-8.016 1.808 19.463 19.463 0 0 0-6.026 4.735 20.581 20.581 0 0 0-3.772 6.816zM666.92 210.678a42.664 42.664 0 0 0-9.026-13.691c-3.837-3.894-7.4-6.964-12.755-9.2-5.325-2.245-9.259-3.364-17.451-3.364-11.3 0-19.659 7.159-19.691 7.175v-5.318h-24.952v116.788H608s.025-39.214.035-39.2c3.8 3.829 13.677 6.831 20.07 6.831a40.149 40.149 0 0 0 16.339-3.194 39.047 39.047 0 0 0 13.706-8.954 40.734 40.734 0 0 0 8.85-13.697 45.96 45.96 0 0 0 3.2-17.387 43.069 43.069 0 0 0-3.28-16.789zm-21.843 16.831c0 12.9-8.6 21.218-18.776 21.218s-18.638-8.466-18.638-21.218v-.3c0-12.767 8.46-21.22 18.638-21.22s18.776 8.453 18.776 21.22zM746.78 186.226s-.026 5.024-.035 5.013c-3.8-3.829-13.677-6.831-20.072-6.831a40.184 40.184 0 0 0-16.337 3.195 39.072 39.072 0 0 0-13.708 8.953 40.8 40.8 0 0 0-8.856 13.693 45.983 45.983 0 0 0-3.195 17.39 43.24 43.24 0 0 0 12.3 30.479c3.841 3.893 7.406 6.964 12.758 9.2 5.325 2.241 9.259 3.363 17.451 3.363 11.3 0 19.658-7.16 19.691-7.174v5.313h24.95v-82.538zm.334 41.666c0 12.766-8.462 21.22-18.638 21.22s-18.777-8.454-18.777-21.22v-.3c0-12.9 8.6-21.218 18.777-21.218s18.638 8.465 18.638 21.218zM544.122 186.361h25.7L518.78 303.068h-26.931l14.683-34.325-35.088-82.383h27.212l21.953 55.1zM1027.208 228.46c0-25.471-16.6-44.166-40.01-44.166-24.6 0-42.945 18.148-42.945 42.279v.3c0 25.872 18.768 43.7 44.157 43.7 15.3 0 26.645-5.989 34.538-15.781l-14.889-13.19c-5.116 6.465-11.3 9.729-19.348 9.729-10.708 0-18.283-5.675-20.657-16.553h58.824c.172-2.215.33-4.418.33-6.318zm-59.469-8.678c1.531-9.7 8.364-16.809 18.3-16.809 10.091 0 16.367 6.842 17.824 16.809z"/><rect width="25.287" height="117.178" transform="translate(1040.728 151.616)"/><path d="M454.588 193.378q8.344 8.965 8.351 24.418v50.946h-25.3v-46.9q0-7.376-3.244-11.422c-2.161-2.688-5.42-4.031-9.752-4.031a14.757 14.757 0 0 0-11.764 5.09q-4.395 5.1-4.4 12.994v44.272h-24.423v-46.9q0-7.376-3.243-11.422c-2.159-2.688-5.419-4.031-9.75-4.031a14.84 14.84 0 0 0-11.679 5.09q-4.48 5.1-4.489 12.994v44.272h-25.273V186.36h25.1l.007 9.135a31.434 31.434 0 0 1 9.834-7.9 29.536 29.536 0 0 1 14.067-3.162 33.586 33.586 0 0 1 8.775 1.044 28.164 28.164 0 0 1 11.866 6.421 27.737 27.737 0 0 1 3.6 3.945 34.782 34.782 0 0 1 12.381-8.421 39.465 39.465 0 0 1 15.18-2.989q15.824-.005 24.156 8.945zM846.224 185.23a21.293 21.293 0 0 1 4.648 1.23l-4.035 22.314a29.919 29.919 0 0 0-9.133-1.244q-8.943 0-14.481 5.361t-5.546 15.195v40.754H792.39v-82.59h25.11v10.575a37.66 37.66 0 0 1 8.694-8.077q5.534-3.859 14.323-3.874a40.741 40.741 0 0 1 5.707.356zM884.471 219.172a25.531 25.531 0 0 0-1.289 8.172 24.4 24.4 0 0 0 1.289 7.83 21.437 21.437 0 0 0 3.784 6.9 19.967 19.967 0 0 0 6.026 4.9 16.679 16.679 0 0 0 8.016 1.89 21.06 21.06 0 0 0 10.679-2.492 28.138 28.138 0 0 0 6.891-5.422l14.463 16.183a42.683 42.683 0 0 1-13.172 9.473 44.174 44.174 0 0 1-19.394 3.966 47.538 47.538 0 0 1-17.8-3.2 39.039 39.039 0 0 1-13.705-8.954 40.793 40.793 0 0 1-8.857-13.691 46.031 46.031 0 0 1-3.2-17.388 43.235 43.235 0 0 1 12.306-30.481 41.771 41.771 0 0 1 13.785-9.205 44.57 44.57 0 0 1 17.462-3.364 46.548 46.548 0 0 1 19.114 3.616 40.647 40.647 0 0 1 13.621 9.64l-14.995 16.2a28.883 28.883 0 0 0-6.7-5.522c-2.662-1.6-6.168-2.41-10.51-2.41a17.3 17.3 0 0 0-8.016 1.808 19.463 19.463 0 0 0-6.026 4.735 20.581 20.581 0 0 0-3.772 6.816zM666.92 210.678a42.664 42.664 0 0 0-9.026-13.691c-3.837-3.894-7.4-6.964-12.755-9.2-5.325-2.245-9.259-3.364-17.451-3.364-11.3 0-19.659 7.159-19.691 7.175v-5.318h-24.952v116.788H608s.025-39.214.035-39.2c3.8 3.829 13.677 6.831 20.07 6.831a40.149 40.149 0 0 0 16.339-3.194 39.047 39.047 0 0 0 13.706-8.954 40.734 40.734 0 0 0 8.85-13.697 45.96 45.96 0 0 0 3.2-17.387 43.069 43.069 0 0 0-3.28-16.789zm-21.843 16.831c0 12.9-8.6 21.218-18.776 21.218s-18.638-8.466-18.638-21.218v-.3c0-12.767 8.46-21.22 18.638-21.22s18.776 8.453 18.776 21.22zM544.122 186.361h25.7L518.78 303.068h-26.931l14.683-34.325-35.088-82.383h27.212l21.953 55.1z"/></g></g></svg>
