<svg width="591" height="782" viewBox="0 0 591 782" fill="none" xmlns="http://www.w3.org/2000/svg">
<path d="M6.33428 560.87C9.33223 538.073 14.3485 516.241 24.0348 495.769C35.3275 471.903 52.5089 453.208 74.9725 439.312C99.2377 424.301 126.043 415.698 153.352 408.604C170.823 404.066 188.577 400.616 206.228 396.789C207.715 396.467 209.383 396.986 210.956 398.159C205.746 400.406 200.395 402.377 195.353 404.952C180.837 412.365 169.501 423.454 159.748 436.341C152.064 446.493 144.221 456.524 136.182 466.956C151.237 480.239 166.045 493.304 181.181 506.658C172.664 515.752 164.285 524.691 155.915 533.638C151.256 538.618 146.716 543.716 141.914 548.554C139.711 550.774 139.756 552.415 141.45 554.981C176.177 607.582 210.818 660.24 245.459 712.898C259.531 734.289 273.568 755.703 287.602 777.119C288.201 778.034 288.604 779.077 289.754 781.36C273.712 779.955 258.656 779.131 243.739 777.223C215.77 773.645 188.608 766.561 162.123 756.867C123.712 742.808 88.2762 723.365 56.1209 698.074C36.3339 682.511 18.277 665.071 1.62844 646.197C0.494625 644.912 -0.113613 642.604 0.0176197 640.845C1.99652 614.324 4.14045 587.816 6.33428 560.87Z" fill="#4C4C4C"/>
<path d="M397.388 634.82C416.058 606.717 434.498 578.899 453.108 550.824C439.233 535.931 425.424 521.108 411.233 505.876C426.213 492.664 440.984 479.635 456.128 466.278C450.103 458.472 444.213 450.923 438.413 443.306C428.014 429.649 417.183 416.376 402.086 407.59C395.322 403.654 388.072 400.554 381.013 396.425C383.917 396.818 386.847 397.074 389.721 397.625C422.562 403.915 455.16 411.1 486.317 423.66C520.483 437.432 548.342 458.602 565.641 491.867C575.368 510.57 581.563 530.6 583.704 551.516C586.647 580.274 588.408 609.151 590.885 637.959C591.29 642.664 589.858 646.055 586.779 649.477C557.597 681.897 524.113 708.931 486.065 730.265C444.557 753.538 400.308 768.94 353.129 775.373C336.372 777.658 319.434 778.607 302.578 780.165C302.352 779.716 302.125 779.267 301.898 778.818C333.652 730.913 365.405 683.008 397.388 634.82Z" fill="#4C4C4C"/>
<path d="M326.762 377.288C293.842 384.257 262.493 381.188 232.979 365.479C205.818 351.023 184.908 329.851 169.012 303.595C148.831 270.262 139.349 233.963 138.769 195.178C138.642 186.691 138.613 178.203 138.566 169.715C138.565 169.462 138.87 169.207 139.204 168.683C143.424 171.617 146.56 175.224 147.837 180.295C149.898 188.482 151.533 196.815 154.202 204.801C156.644 212.109 159.958 219.168 163.386 226.091C165.63 230.621 170.002 232.739 174.866 234.077C197.144 240.204 219.711 240.924 241.873 234.971C258.119 230.607 270.628 220.146 277.423 204.164C280.275 197.455 282.152 190.334 284.953 183.6C285.721 181.752 288.014 180.071 289.991 179.315C292.227 178.459 294.893 178.557 297.373 178.549C301.444 178.537 304.297 180.324 305.539 184.462C306.871 188.895 308.415 193.265 309.889 197.655C318.353 222.854 337.707 238.001 364.208 238.088C379.567 238.139 395.06 236.491 410.261 234.123C424.223 231.949 430.73 223.76 432.437 209.675C433.116 204.068 433.233 198.392 433.941 192.79C435.12 183.454 438.467 175.206 446.349 169.31C448.177 167.943 449.532 165.943 452.376 164.21C452.376 172.891 452.472 181.574 452.357 190.253C452.038 214.494 449.001 238.323 441.223 261.399C432.662 286.8 420.156 309.893 402.287 330.102C389.234 344.864 374.19 357.052 356.81 366.002C347.479 370.806 337.089 373.552 326.762 377.288Z" fill="#4C4C4C"/>
<path d="M449.711 147.559C420.733 142.266 391.488 141.346 362.279 144.03C344.175 145.694 326.196 149.119 308.293 152.463C290.804 155.728 273.784 153.923 257.14 148.73C235.331 141.926 213.061 140.627 190.561 141.999C174.33 142.989 158.157 144.945 141.361 146.329C140.63 146.075 140.497 145.96 140.363 145.846C142.552 117.934 149.124 91.158 161.869 66.1428C173.25 43.8056 188.304 24.9097 212.201 14.6373C226.305 8.5745 240.959 4.47789 256.117 2.60398C287.151 -1.23269 318.161 -1.21877 348.914 5.28218C371.238 10.0016 391.84 18.4571 407.706 35.5459C420.397 49.2156 428.98 65.5446 435.895 82.7557C444.057 103.069 448.461 124.26 450.266 146.597C449.96 147.315 449.835 147.437 449.711 147.559Z" fill="#4C4C4C"/>
<path d="M345.017 473.344C334.546 539.119 324.146 604.464 313.739 669.807C308.143 704.943 302.54 740.077 296.926 775.21C296.671 776.805 296.278 778.378 295.95 779.961C295.521 779.977 295.091 779.993 294.662 780.009C275.415 659.232 256.168 538.454 236.793 416.875C255.846 424.855 275.07 428.95 295.198 428.951C315.404 428.952 334.719 425.009 354.037 416.887C350.989 435.966 348.037 454.439 345.017 473.344Z" fill="#4C4C4C"/>
<path d="M450.284 147.022C450.305 147.216 450.127 147.581 449.83 147.752C449.836 147.437 449.96 147.315 450.284 147.022Z" fill="#4C4C4C"/>
</svg>
