<svg width="606" height="802" viewBox="0 0 606 802" fill="none" xmlns="http://www.w3.org/2000/svg">
<path d="M162.099 72.6656C168.886 62.4518 174.574 51.7365 182.387 42.9007C200.867 22.0018 224.859 9.90753 252.059 4.99011C290.807 -2.01521 329.692 -2.40349 367.786 8.73592C398.424 17.6953 422.427 35.8124 438.616 64.0395C452.426 88.1188 458.905 114.202 460.906 141.399C462.576 164.103 463.785 186.978 462.971 209.698C461.595 248.141 450.026 283.851 429.344 316.439C417.081 335.761 401.833 352.373 382.72 365.001C335.18 396.409 286.102 400.364 235.349 372.601C206.106 356.605 184.51 333.093 168.789 304.253C154.841 278.664 145.86 251.165 143.463 221.965C140.221 182.463 141.784 143.116 150.855 104.409C153.372 93.6674 158.198 83.467 162.099 72.6656Z" fill="#2796A8"/>
<path d="M284.267 780.598C288.482 787.129 292.537 793.337 296.593 799.545C296.38 800.053 296.167 800.561 295.954 801.068C277.665 799.197 259.287 797.948 241.105 795.331C195.85 788.818 153.367 773.54 113.143 752.157C72.2685 730.428 36.6708 701.876 5.65775 667.416C0.488366 661.672 -0.19458 656.278 0.0391855 649.464C1.15346 616.982 3.63477 584.642 10.0325 552.732C15.183 527.043 24.1898 502.911 40.5299 482.003C52.9278 466.14 68.4528 454.059 86.1399 444.666C115.916 428.853 148.154 420.276 180.727 412.75C190.274 410.545 199.901 408.669 209.525 406.811C211.572 406.416 213.76 406.753 216.22 407.566C178.785 418.587 161.544 450.759 139.501 478.485C155.022 492.205 170.173 505.596 185.467 519.115C171.102 534.593 156.97 549.822 142.621 565.283C189.876 637.088 236.992 708.681 284.267 780.598Z" fill="#2796A8"/>
<path d="M603.342 608.621C604.153 625.375 604.968 641.661 605.601 657.954C605.662 659.529 605.02 661.517 603.993 662.692C576.948 693.632 545.63 719.587 510.66 741.016C470.183 765.819 426.4 782.36 379.839 791.598C357.763 795.978 335.508 798.527 312.988 798.611C312.189 798.614 311.39 798.545 309.719 798.471C311.592 795.374 313.076 792.708 314.758 790.173C358.089 724.849 401.442 659.538 444.789 594.224C450.495 585.627 456.072 576.94 461.956 568.466C464.06 565.436 463.822 563.472 461.294 560.816C448.788 547.679 436.472 534.362 424.101 521.097C423.333 520.274 422.662 519.36 421.728 518.222C436.979 504.758 452.037 491.464 467.534 477.783C462.402 471.071 457.413 464.503 452.378 457.969C441.609 443.995 431.205 429.56 415.94 420.037C408.821 415.595 400.912 412.421 393.365 408.665C392.409 408.19 391.476 407.669 390.837 406.036C396.64 407.001 402.478 407.792 408.241 408.958C435.974 414.57 463.533 420.87 490.123 430.77C521.34 442.392 549.183 458.82 569.06 486.515C584.185 507.59 592.942 531.318 597.065 556.679C599.836 573.725 601.265 590.989 603.342 608.621Z" fill="#2796A8"/>
<path d="M313.502 736.743C310.14 757.832 306.862 778.491 303.585 799.151C303.039 799.181 302.493 799.212 301.947 799.243C282.236 675.536 262.524 551.829 242.668 427.215C282.998 443.671 322.506 443.513 362.555 427.343C362.031 431.546 361.692 435.144 361.121 438.705C353.017 489.289 344.845 539.861 336.762 590.448C328.993 639.063 321.309 687.691 313.502 736.743Z" fill="#2796A8"/>
</svg>
